<?xml version="1.0" encoding="UTF-8"?>
<svg width="17px" height="18px" viewBox="0 0 17 18" version="1.1" xmlns="http://www.w3.org/2000/svg" xmlns:xlink="http://www.w3.org/1999/xlink">
    <!-- Generator: Sketch 59.1 (86144) - https://sketch.com -->
    <title>attach-24</title>
    <desc>Created with Sketch.</desc>
    <defs>
        <path d="M19.477093,11.9403366 L13.5264972,17.8699643 C11.7524066,19.6323304 8.88798936,19.6323304 7.13237881,17.8699643 C5.35828816,16.1075982 5.35828816,13.2621112 7.13237881,11.518103 L7.13237881,11.518103 L13.1014547,5.58847527 C14.154821,4.54207037 15.8919514,4.54207037 16.9453178,5.58847527 C17.9986841,6.63488016 17.9986841,8.36053034 16.9453178,9.40693524 L10.9762419,15.336563 C10.6251198,15.6853646 10.0522364,15.6853646 9.68263413,15.336563 C9.31303191,14.9877613 9.33151202,14.4186639 9.68263413,14.0515043 L15.65171,8.14023457 C16.0028321,7.79143294 16.0028321,7.22233554 15.65171,6.85517593 C15.3005879,6.48801632 14.7277044,6.5063743 14.3581022,6.85517593 L8.40750647,12.7848037 C7.39110037,13.8679245 7.4465407,15.5752167 8.53686725,16.6032636 C9.57175347,17.5762366 11.1980032,17.5762366 12.2328894,16.6032636 L18.2019653,10.6919939 C19.976056,8.92962774 19.976056,6.08414074 18.2019653,4.3217746 C16.4278746,2.55940847 13.5634574,2.55940847 11.7893668,4.3217746 L5.85725116,10.2514023 C3.38091628,12.7113717 3.38091628,16.6950535 5.85725116,19.1550229 C8.33358603,21.6149924 12.3437701,21.6149924 14.820105,19.1550229 L20.7891808,13.2253952 C21.1033427,12.8398776 21.0663825,12.2707802 20.6783002,11.9586945 C20.3271781,11.6649669 19.8282151,11.6649669 19.477093,11.9403366 L19.477093,11.9403366 Z" id="path-1"></path>
    </defs>
    <g id="Page-1" stroke="none" stroke-width="1" fill="none" fill-rule="evenodd">
        <g id="icon-/-24-cont-/-content-/-attach-24" transform="translate(-4.000000, -3.000000)">
            <mask id="mask-2" fill="white">
                <use xlink:href="#path-1"></use>
            </mask>
            <use id="Mask" fill="#7E7E7E" fill-rule="nonzero" xlink:href="#path-1"></use>
            <g id="Colors-/-Dark-Theme-/-Grayscale-/-Filled-/-$base-gray" mask="url(#mask-2)" fill="#7E7E7E" fill-rule="evenodd">
                <rect id="Dark-Theme-/-Grayscale-/-Filled-/-$base-gray" x="0" y="0" width="24" height="24"></rect>
            </g>
        </g>
    </g>
</svg>